<svg width="117" height="99" viewBox="0 0 117 99" fill="none" xmlns="http://www.w3.org/2000/svg">
<path d="M55.1611 2.19488C55.9985 1.38419 57.1356 0.928574 58.3215 0.928574C59.5073 0.928574 60.6444 1.38419 61.4819 2.19488L115.048 53.9183C116.794 55.6037 116.794 58.3363 115.048 60.0217C113.303 61.7071 110.473 61.7071 108.727 60.0217L58.3215 11.3413L7.91567 60.0217C6.17022 61.7071 3.3403 61.7071 1.59485 60.0217C-0.150595 58.3363 -0.150595 55.6037 1.59485 53.9183L55.1611 2.19488Z" fill="#0484FB"/>
<path d="M55.1611 39.3377C55.9985 38.527 57.1356 38.0714 58.3215 38.0714C59.5073 38.0714 60.6444 38.527 61.4819 39.3377L115.048 91.0611C116.794 92.7465 116.794 95.4791 115.048 97.1645C113.303 98.8499 110.473 98.8499 108.727 97.1645L58.3215 48.4842L7.91567 97.1645C6.17022 98.8499 3.3403 98.8499 1.59485 97.1645C-0.150595 95.4791 -0.150595 92.7465 1.59485 91.0611L55.1611 39.3377Z" fill="#047FF2"/>
</svg>
